HIERARCHY
ROOT Hips
{
  OFFSET 81.1572 94.3232 10.4063
  CHANNELS 6 Xposition Yposition Zposition Zrotation Xrotation Yrotation
  JOINT spine
  {
    OFFSET 0 7.80059 0.448573
    CHANNELS 3 Zrotation Xrotation Yrotation
    JOINT spine1
    {
      OFFSET 0 10.1364 0
      CHANNELS 3 Zrotation Xrotation Yrotation
      JOINT spine2
      {
        OFFSET 0 9.71251 0
        CHANNELS 3 Zrotation Xrotation Yrotation
        JOINT Neck
        {
          OFFSET 0 24.9361 1.18887
          CHANNELS 3 Zrotation Xrotation Yrotation
          JOINT Head
          {
            OFFSET 0 7.53384 0
            CHANNELS 3 Zrotation Xrotation Yrotation
            End Site
            {
              OFFSET 0 18.2361 -6.01402
            }
          }
        }
        JOINT RightShoulder
        {
          OFFSET -4.08965 10.4888 -0.569457
          CHANNELS 3 Zrotation Xrotation Yrotation
          JOINT RightArm
          {
            OFFSET 0 13.757 0
            CHANNELS 3 Zrotation Xrotation Yrotation
            JOINT RightArmRoll
            {
              OFFSET 0 6.94478 0
              CHANNELS 3 Zrotation Xrotation Yrotation
              JOINT RightForeArm
              {
                OFFSET 0 20.2277 0
                CHANNELS 3 Zrotation Xrotation Yrotation
                JOINT RightForeArmRoll
                {
                  OFFSET 0 7.79312 0
                  CHANNELS 3 Zrotation Xrotation Yrotation
                  JOINT RightHand
                  {
                    OFFSET 0 15.6391 0
                    CHANNELS 3 Zrotation Xrotation Yrotation
                    End Site
                    {
                      OFFSET 0 0 0
                    }
                  }
                }
              }
            }
          }
        }
        JOINT LeftShoulder
        {
          OFFSET 4.08965 10.4888 -0.569457
          CHANNELS 3 Zrotation Xrotation Yrotation
          JOINT LeftArm
          {
            OFFSET 0 13.757 0
            CHANNELS 3 Zrotation Xrotation Yrotation
            JOINT LeftArmRoll
            {
              OFFSET 0 6.94478 0
              CHANNELS 3 Zrotation Xrotation Yrotation
              JOINT LeftForeArm
              {
                OFFSET 0 20.2277 0
                CHANNELS 3 Zrotation Xrotation Yrotation
                JOINT LeftForeArmRoll
                {
                  OFFSET 0 7.79312 0
                  CHANNELS 3 Zrotation Xrotation Yrotation
                  JOINT LeftHand
                  {
                    OFFSET 0 15.6391 0
                    CHANNELS 3 Zrotation Xrotation Yrotation
                    End Site
                    {
                      OFFSET 0 0 0
                    }
                  }
                }
              }
            }
          }
        }
      }
    }
  }
  JOINT RightUpLeg
  {
    OFFSET -6.91416 -1.26788 -1.06358
    CHANNELS 3 Zrotation Xrotation Yrotation
    JOINT RightUpLegRoll
    {
      OFFSET 0 18.3378 0
      CHANNELS 3 Zrotation Xrotation Yrotation
      JOINT RightLeg
      {
        OFFSET 0 -22.7085 0
        CHANNELS 3 Zrotation Xrotation Yrotation
        JOINT RightLegRoll
        {
          OFFSET 0 22.7828 0
          CHANNELS 3 Zrotation Xrotation Yrotation
          JOINT RightFoot
          {
            OFFSET 0 18.9629 0
            CHANNELS 3 Zrotation Xrotation Yrotation
            JOINT RightToeBase
            {
              OFFSET 0 15.852 0
              CHANNELS 3 Zrotation Xrotation Yrotation
              End Site
              {
                OFFSET 0.00671906 7.677 -0.884893
              }
            }
          }
        }
      }
    }
  }
  JOINT LeftUpLeg
  {
    OFFSET 6.91416 -1.26788 -1.06358
    CHANNELS 3 Zrotation Xrotation Yrotation
    JOINT LeftUpLegRoll
    {
      OFFSET 0 18.3379 0
      CHANNELS 3 Zrotation Xrotation Yrotation
      JOINT LeftLeg
      {
        OFFSET 0 22.7084 0
        CHANNELS 3 Zrotation Xrotation Yrotation
        JOINT LeftLegRoll
        {
          OFFSET 0 22.9934 0
          CHANNELS 3 Zrotation Xrotation Yrotation
          JOINT LeftFoot
          {
            OFFSET 0 18.7522 0
            CHANNELS 3 Zrotation Xrotation Yrotation
            JOINT LeftToeBase
            {
              OFFSET 0 15.852 0
              CHANNELS 3 Zrotation Xrotation Yrotation
              End Site
              {
                OFFSET -0.030112 7.677 -0.884893
              }
            }
          }
        }
      }
    }
  }
}
MOTION
Frames: 13
Frame Time: 0.00208333
64.188 93.3277 14.9493 0.12559 -1.62922 52.8733 -0.618869 -2.98174 0.788164 -1.20178 -1.96927 1.62529 -1.22097 -0.324687 1.64514 -0.476834 24.0687 9.03244 -0.659272 -14.2778 8.62185 51.9822 -10.0046 -6.19677 52.8484 58.4781 86.7065 -3.18055e-015 -3.57812e-015 -7.15625e-015 167.547 43.3453 -142.812 -1.03142e-006 -0.000581193 -3.00502 8.03068 -4.95129 0.697134 -63.9603 -4.75564 3.28781 -88.8264 11.7376 -11.8561 -1.91843e-005 -1.89771e-006 -2.62726e-006 -7.37063 30.9652 3.75212 3.74895e-006 2.03179e-006 3 -8.02926 -4.95112 -0.697583 174.173 -10.4451 3.74594 180 7.01453e-015 178.571 179.305 18.6549 179.56 3.05188e-006 -7.80709e-006 0.818872 -22.0517 72.0325 23.5792 7.15761 34.9341 5.24446 -174.8 18.2321 3.78598 4.54188e-006 -4.6773e-006 -0.933746 -5.34873 -16.0156 -0.492322 -6.55742e-007 -3.52511e-006 -0.23547 20.5067 71.1298 -22.4698 -8.13649 25.2327 3.48774 
64.3214 93.3397 14.9377 0.0956238 -1.58063 53.0511 -0.621175 -2.9802 0.799143 -1.20593 -1.96633 1.64745 -1.22539 -0.321755 1.66737 -0.931433 23.7475 9.01985 -0.146943 -14.2103 8.57254 51.6702 -9.93291 -6.14347 52.8188 59.0034 86.8575 3.18055e-015 7.15625e-015 3.08116e-015 167.502 43.3878 -142.835 -1.03142e-006 -0.000581193 -3.00502 8.03068 -4.95129 0.697134 -64.3484 -4.74774 3.30953 -88.9293 11.5219 -11.9311 -1.91843e-005 -1.89771e-006 -2.62726e-006 -7.35805 30.8855 3.74268 3.74895e-006 2.03179e-006 3 -8.02926 -4.95112 -0.697583 174.136 -10.4234 3.75961 180 7.01452e-015 178.569 179.319 18.6689 179.551 3.05188e-006 -7.80709e-006 0.808401 -21.9043 71.9005 23.4186 7.12925 35.101 5.30588 -174.929 18.2583 3.87846 4.54188e-006 -4.6773e-006 -0.939345 -5.34943 -16.0151 -0.495024 -6.55742e-007 -3.52511e-006 -0.237855 20.6632 71.1912 -22.5464 -8.13649 25.2327 3.48774 
64.4454 93.3624 14.9022 0.0636554 -1.52982 53.2282 -0.622645 -2.97831 0.810597 -1.20841 -1.96266 1.6705 -1.22813 -0.318097 1.69046 -1.41637 23.413 9.01294 0.388853 -14.1386 8.52458 51.3323 -9.86596 -6.09369 52.8843 59.5324 86.8309 -3.35526e-031 2.76311e-014 6.95746e-016 167.472 43.4475 -142.936 -1.03142e-006 -0.000581193 -3.00502 8.03068 -4.95129 0.697134 -64.7518 -4.73509 3.32924 -89.0168 11.3074 -12.013 -1.91843e-005 -1.89771e-006 -2.62726e-006 -7.34728 30.8019 3.73366 3.74895e-006 2.03179e-006 3 -8.02926 -4.95112 -0.697583 174.101 -10.3942 3.77164 180 7.01452e-015 178.567 179.334 18.6892 179.543 3.05188e-006 -7.80709e-006 0.798351 -21.7629 71.7722 23.2647 7.10074 35.2681 5.36611 -175.056 18.288 3.9683 4.54188e-006 -4.6773e-006 -0.94489 -5.35287 -16.0136 -0.498294 -6.55742e-007 -3.52511e-006 -0.240042 20.8224 71.2536 -22.6249 -8.13649 25.2327 3.48774 
64.5946 93.3545 14.8668 0.029824 -1.47716 53.4048 -0.62338 -2.97606 0.822435 -1.2094 -1.95829 1.69426 -1.22942 -0.313731 1.71424 -1.92768 23.0669 9.01044 0.945292 -14.0635 8.47752 50.9725 -9.80237 -6.04621 53.0394 60.064 86.6419 3.18055e-015 6.75868e-015 -5.36719e-015 167.455 43.5228 -143.105 -1.03142e-006 -0.000581193 -3.00502 8.03068 -4.95129 0.697134 -65.1678 -4.71806 3.34707 -89.0909 11.0942 -12.1009 -1.91843e-005 -1.89771e-006 -2.62726e-006 -7.33789 30.7136 3.7248 3.74895e-006 2.03179e-006 3 -8.02926 -4.95112 -0.697583 174.066 -10.3585 3.78196 180 7.01451e-015 178.565 179.351 18.7147 179.533 3.05188e-006 -7.80709e-006 0.788658 -21.6271 71.6474 23.1169 7.07212 35.4355 5.42477 -175.181 18.3208 4.05572 4.54188e-006 -4.6773e-006 -0.950373 -5.3587 -16.0111 -0.502049 -6.55742e-007 -3.52511e-006 -0.242046 20.9837 71.3166 -22.7051 -8.13649 25.2327 3.48774 
64.6992 93.3701 14.8527 -0.00572747 -1.42305 53.5814 -0.623483 -2.97347 0.834568 -1.20914 -1.95323 1.71857 -1.22944 -0.308675 1.73855 -2.46143 22.711 9.01108 1.51956 -13.9855 8.43094 50.5946 -9.74074 -5.99979 53.2772 60.5963 86.307 8.4416e-031 -4.77083e-015 1.0138e-014 167.449 43.6119 -143.331 -1.03142e-006 -0.000581193 -3.00502 8.03068 -4.95129 0.697134 -65.5939 -4.697 3.36313 -89.1535 10.8828 -12.1943 -1.91843e-005 -1.89771e-006 -2.62726e-006 -7.32942 30.6202 3.71589 3.74895e-006 2.03179e-006 3 -8.02926 -4.95112 -0.697583 174.034 -10.3175 3.79047 180 7.0145e-015 178.563 179.368 18.7443 179.524 3.05188e-006 -7.80709e-006 0.779259 -21.4965 71.5258 22.9747 7.04347 35.6035 5.48147 -175.305 18.3563 4.14092 4.54188e-006 -4.6773e-006 -0.955786 -5.36657 -16.0078 -0.506209 -6.55742e-007 -3.52511e-006 -0.24388 21.1469 71.38 -22.7868 -8.13649 25.2327 3.48774 
64.8402 93.3721 14.822 -0.0428535 -1.36786 53.7585 -0.623056 -2.97055 0.846904 -1.20781 -1.94749 1.74325 -1.22841 -0.302947 1.7632 -3.01372 22.3471 9.01359 2.10882 -13.9052 8.38441 50.2024 -9.67968 -5.95322 53.5898 61.1269 85.8447 4.48977e-031 2.38542e-015 -1.07841e-014 167.451 43.713 -143.602 -1.03142e-006 -0.000581193 -3.00502 8.03068 -4.95129 0.697134 -66.0276 -4.6723 3.37754 -89.2067 10.6732 -12.2924 -1.91843e-005 -1.89771e-006 -2.62726e-006 -7.32143 30.521 3.70669 3.74895e-006 2.03179e-006 3 -8.02926 -4.95112 -0.697583 174.005 -10.2723 3.79711 180 7.0145e-015 178.561 179.387 18.7767 179.514 3.05188e-006 -7.80708e-006 0.770089 -21.3707 71.4071 22.8376 7.01485 35.7725 5.53582 -175.427 18.3942 4.2241 4.54188e-006 -4.6773e-006 -0.961123 -5.37613 -16.0039 -0.510691 -6.55742e-007 -3.52511e-006 -0.245558 21.3115 71.4437 -22.8696 -8.13649 25.2327 3.48774 
64.9738 93.3741 14.7871 -0.081405 -1.31195 53.9365 -0.622201 -2.9673 0.859354 -1.20563 -1.9411 1.76812 -1.22654 -0.296566 1.78803 -3.58069 21.977 9.01671 2.71027 -13.8231 8.33749 49.7999 -9.61776 -5.90526 53.9673 61.6535 85.2751 9.54166e-015 -3.97569e-016 -1.90833e-014 167.458 43.8244 -143.907 -1.03142e-006 -0.000581193 -3.00502 8.03068 -4.95129 0.697134 -66.4662 -4.64431 3.3904 -89.2523 10.4656 -12.3945 -1.91843e-005 -1.89771e-006 -2.62726e-006 -7.31347 30.4155 3.69698 3.74895e-006 2.03179e-006 3 -8.02926 -4.95112 -0.697583 173.978 -10.224 3.80179 180 7.01449e-015 178.558 179.406 18.8107 179.505 3.05188e-006 -7.80708e-006 0.761084 -21.2494 71.2911 22.7053 6.98633 35.9427 5.58744 -175.547 18.4342 4.30548 4.54188e-006 -4.6773e-006 -0.966376 -5.38704 -15.9994 -0.515414 -6.55742e-007 -3.52511e-006 -0.247093 21.477 71.5074 -22.9534 -8.13649 25.2327 3.48774 
65.1243 93.4089 14.7573 -0.12123 -1.2557 54.1159 -0.62102 -2.96373 0.871827 -1.20281 -1.93407 1.79301 -1.22402 -0.289548 1.81288 -4.15851 21.6024 9.0192 3.32109 -13.7398 8.28975 49.3908 -9.5536 -5.85471 54.3981 62.174 84.6209 -2.27592e-032 2.18663e-015 5.96354e-016 167.47 43.9444 -144.237 -1.03142e-006 -0.000581193 -3.00502 8.03068 -4.95129 0.697134 -66.9072 -4.61339 3.40184 -89.2923 10.2604 -12.5 -1.91843e-005 -1.89771e-006 -2.62726e-006 -7.30511 30.3031 3.68654 3.74895e-006 2.03179e-006 3 -8.02926 -4.95112 -0.697583 173.954 -10.1737 3.80445 180 7.01448e-015 178.556 179.427 18.8453 179.495 3.05188e-006 -7.80709e-006 0.752182 -21.1321 71.1776 22.5773 6.95798 36.1145 5.63592 -175.666 18.4758 4.38525 4.54188e-006 -4.6773e-006 -0.971538 -5.39896 -15.9945 -0.520296 -6.55742e-007 -3.52511e-006 -0.248499 21.6431 71.571 -23.0378 -8.13649 25.2327 3.48774 
65.1711 93.4467 14.7412 -0.162175 -1.19946 54.297 -0.619616 -2.95986 0.884233 -1.19955 -1.92643 1.81776 -1.22106 -0.281912 1.83757 -4.74336 21.2252 9.01981 3.93845 -13.6559 8.24076 48.9791 -9.48578 -5.80034 54.8683 62.6867 83.9068 -2.96646e-030 2.20651e-014 7.70291e-015 167.482 44.0717 -144.579 -1.03142e-006 -0.000581193 -3.00502 8.03068 -4.95129 0.697134 -67.3481 -4.57993 3.41196 -89.3287 10.0576 -12.6082 -1.91843e-005 -1.89771e-006 -2.62726e-006 -7.29592 30.1832 3.67513 3.74895e-006 2.03179e-006 3 -8.02926 -4.95112 -0.697583 173.934 -10.1225 3.805 180 7.01447e-015 178.554 179.447 18.8792 179.485 3.05188e-006 -7.80708e-006 0.743317 -21.0186 71.0662 22.4532 6.92988 36.288 5.68087 -175.783 18.5187 4.46362 4.54188e-006 -4.6773e-006 -0.976601 -5.41153 -15.9893 -0.525256 -6.55742e-007 -3.52511e-006 -0.249789 21.8094 71.6341 -23.1227 -8.13649 25.2327 3.48774 
65.3117 93.4575 14.7202 -0.204082 -1.1436 54.4804 -0.61809 -2.95569 0.896481 -1.19606 -1.91818 1.84218 -1.21787 -0.273676 1.86194 -5.33149 20.847 9.0173 4.55954 -13.5719 8.19008 48.5686 -9.41289 -5.74094 55.3621 63.1907 83.1605 6.36111e-015 -4.07509e-015 -9.93923e-016 167.492 44.2047 -144.923 -1.03142e-006 -0.000581193 -3.00502 8.03068 -4.95129 0.697134 -67.7863 -4.54428 3.42089 -89.3633 9.85764 -12.7185 -1.91843e-005 -1.89771e-006 -2.62726e-006 -7.28546 30.0552 3.66255 3.74895e-006 2.03179e-006 3 -8.02926 -4.95112 -0.697583 173.918 -10.0715 3.80336 180 7.01447e-015 178.552 179.468 18.9112 179.476 3.05188e-006 -7.80709e-006 0.734427 -20.9086 70.9568 22.3326 6.90213 36.4637 5.72188 -175.9 18.5627 4.5408 4.54188e-006 -4.6773e-006 -0.981559 -5.4244 -15.9839 -0.530211 -6.55742e-007 -3.52511e-006 -0.250978 21.9754 71.6966 -23.2076 -8.13649 25.2327 3.48774 
65.3959 93.4504 14.6969 -0.24679 -1.08847 54.6665 -0.616544 -2.95123 0.908482 -1.19256 -1.90936 1.86611 -1.21465 -0.264858 1.88581 -5.91918 20.4697 9.01044 5.18155 -13.4884 8.13729 48.163 -9.33352 -5.67529 55.8612 63.6857 82.412 3.18055e-015 2.36554e-014 7.72775e-015 167.498 44.3422 -145.256 -1.03142e-006 -0.000581193 -3.00502 8.03068 -4.95129 0.697134 -68.2192 -4.5068 3.42873 -89.398 9.66056 -12.83 -1.91843e-005 -1.89771e-006 -2.62726e-006 -7.2733 29.9187 3.64857 3.74895e-006 2.03179e-006 3 -8.02926 -4.95112 -0.697583 173.906 -10.0219 3.79946 180 7.01446e-015 178.55 179.489 18.9402 179.466 3.05188e-006 -7.80709e-006 0.725447 -20.8017 70.849 22.2153 6.87481 36.6419 5.75856 -176.014 18.6072 4.61698 4.54188e-006 -4.6773e-006 -0.986405 -5.43724 -15.9785 -0.53508 -6.55742e-007 -3.52511e-006 -0.252078 22.1406 71.7582 -23.2923 -8.13649 25.2327 3.48774 
65.5186 93.4663 14.6743 -0.290137 -1.03442 54.8556 -0.615081 -2.94649 0.920145 -1.18923 -1.89997 1.88937 -1.21161 -0.255476 1.90902 -6.50273 20.095 8.99799 5.80164 -13.4061 8.08194 47.7661 -9.24626 -5.60219 56.3448 64.1723 81.6941 3.18055e-015 1.33683e-014 -7.0817e-016 167.497 44.4833 -145.568 -1.03142e-006 -0.000581193 -3.00502 8.03068 -4.95129 0.697134 -68.6443 -4.46788 3.4356 -89.4347 9.46663 -12.9422 -1.91843e-005 -1.89771e-006 -2.62726e-006 -7.25902 29.7729 3.63297 3.74895e-006 2.03179e-006 3 -8.02926 -4.95112 -0.697583 173.899 -9.97476 3.79322 180 7.01446e-015 178.548 179.509 18.965 179.456 3.05188e-006 -7.80709e-006 0.716313 -20.6977 70.7426 22.1008 6.84803 36.8227 5.7905 -176.128 18.652 4.69237 4.54188e-006 -4.6773e-006 -0.99113 -5.4497 -15.9731 -0.539782 -6.55742e-007 -3.52511e-006 -0.253104 22.3047 71.8188 -23.3765 -8.13649 25.2327 3.48774 
65.6194 93.4714 14.6657 -0.333955 -0.981789 55.0482 -0.613802 -2.94148 0.931379 -1.1863 -1.89003 1.9118 -1.20895 -0.245548 1.9314 -7.07848 19.7246 8.97872 6.41702 -13.3253 8.0236 47.3818 -9.14968 -5.52043 56.7898 64.6518 81.0424 3.18055e-015 1.16289e-014 -4.21175e-015 167.486 44.627 -145.847 -1.03142e-006 -0.000581193 -3.00502 8.03068 -4.95129 0.697134 -69.0591 -4.42786 3.44162 -89.4753 9.27606 -13.0544 -1.91843e-005 -1.89771e-006 -2.62726e-006 -7.24221 29.6174 3.61555 3.74895e-006 2.03179e-006 3 -8.02926 -4.95112 -0.697583 173.896 -9.93117 3.78456 180 7.01445e-015 178.546 179.53 18.9844 179.447 3.05188e-006 -7.80709e-006 0.706963 -20.5964 70.6373 21.9888 6.82188 37.0066 5.81728 -176.24 18.6968 4.76717 4.54188e-006 -4.6773e-006 -0.995727 -5.46142 -15.9678 -0.544235 -6.55742e-007 -3.52511e-006 -0.254068 22.4671 71.8782 -23.4599 -8.13649 25.2327 3.48774 
